<svg width="200" height="300" viewBox="0 0 200 300" xmlns="http://www.w3.org/2000/svg">

	<defs>
		<linearGradient id="redToYellowGradient" x1="0%" y1="0%" x2="0%" y2="100%">
			<stop offset="0%" style="stop-color:red;stop-opacity:1" />
			<stop offset="100%" style="stop-color:yellow;stop-opacity:1" />
		</linearGradient>
	</defs>

	<path d="M 100,50
		C 50,50 50,180 100,240
		C 150,180 150,50 100,50
		Z"
	fill="grey"/>

	<path d="M 85,55
		C 95,40 105,40 115,55
		Z"
	fill="black"/>

	<line x1="100" y1="15" x2="100" y2="55" stroke="black" stroke-width="4"/>

	<line x1="64" y1="100" x2="136" y2="100" stroke="#4d4d4d" stroke-width="1"/>
	<line x1="63.5" y1="105" x2="136.5" y2="105" stroke="#4d4d4d" stroke-width="1"/>

	<line x1="66" y1="160" x2="134" y2="160" stroke="#4d4d4d" stroke-width="1"/>
	<line x1="67" y1="165" x2="133" y2="165" stroke="#4d4d4d" stroke-width="1"/>

	<circle cx="70" cy="102.5" r="1" fill="#4d4d4d"/>
	<circle cx="80" cy="102.5" r="1" fill="#4d4d4d"/>
	<circle cx="90" cy="102.5" r="1" fill="#4d4d4d"/>
	<circle cx="100" cy="102.5" r="1" fill="#4d4d4d"/>
	<circle cx="110" cy="102.5" r="1" fill="#4d4d4d"/>
	<circle cx="120" cy="102.5" r="1" fill="#4d4d4d"/>
	<circle cx="130" cy="102.5" r="1" fill="#4d4d4d"/>

	<circle cx="70" cy="162.5" r="1" fill="#4d4d4d"/>
	<circle cx="80" cy="162.5" r="1" fill="#4d4d4d"/>
	<circle cx="90" cy="162.5" r="1" fill="#4d4d4d"/>
	<circle cx="100" cy="162.5" r="1" fill="#4d4d4d"/>
	<circle cx="110" cy="162.5" r="1" fill="#4d4d4d"/>
	<circle cx="120" cy="162.5" r="1" fill="#4d4d4d"/>
	<circle cx="130" cy="162.5" r="1" fill="#4d4d4d"/>

	<circle cx="100" cy="102.5" r="1" fill="#4d4d4d"/>
	<circle cx="100" cy="95.5" r="1" fill="#4d4d4d"/>
	<circle cx="100" cy="88.5" r="1" fill="#4d4d4d"/>
	<circle cx="100" cy="81.5" r="1" fill="#4d4d4d"/>
	<circle cx="100" cy="74.5" r="1" fill="#4d4d4d"/>
	<circle cx="100" cy="67.5" r="1" fill="#4d4d4d"/>
	<circle cx="100" cy="60.5" r="1" fill="#4d4d4d"/>

	<circle cx="100" cy="162.5" r="1" fill="#4d4d4d"/>
	<circle cx="100" cy="169.5" r="1" fill="#4d4d4d"/>
	<circle cx="100" cy="176.5" r="1" fill="#4d4d4d"/>
	<circle cx="100" cy="183.5" r="1" fill="#4d4d4d"/>
	<circle cx="100" cy="190.5" r="1" fill="#4d4d4d"/>
	<circle cx="100" cy="197.5" r="1" fill="#4d4d4d"/>
	<circle cx="100" cy="204.5" r="1" fill="#4d4d4d"/>

	<circle cx="100" cy="132.5" r="15" fill="green"/>

	<text x="100" y="132.5" font-family="cursive" font-size="35" fill="white" text-anchor="middle" dominant-baseline="middle">e</text>

	<line x1="50" y1="200" x2="73.5" y2="190" stroke="#4d4d4d" stroke-width="1"/>
	<line x1="52" y1="210" x2="77" y2="200" stroke="#4d4d4d" stroke-width="1"/>

	<line x1="150" y1="200" x2="126.5" y2="190" stroke="#4d4d4d" stroke-width="1"/>
	<line x1="148" y1="210" x2="123" y2="200" stroke="#4d4d4d" stroke-width="1"/>

	<path d="M 40,190
		C 23.3,190 23.3,230 40,253.3
		C 56.7,230 56.7,190 40,190
		Z"
	fill="grey"/>

	<path d="M 160,190
		C 143.3,190 143.3,230 160,253.3
		C 176.7,230 176.7,190 160,190
		Z"
	fill="grey"/>

	<path d="M 85,250
		C 95,215 105,215 115,250
		Z"
	fill="#666666"/>

	<g
		style="stroke: none; stroke-width: 0; stroke-dasharray: none; stroke-linecap: butt; stroke-linejoin: miter; stroke-miterlimit: 10; fill: none; fill-rule: nonzero; opacity: 1;"
		transform="translate(77, 295) scale(0.5, -0.5)" >
		<path d="M 45 90 c -17.839 0 -32.352 -14.513 -32.352 -32.352 c 0 -0.083 0.01 -0.164 0.029 -0.241 c 0.053 -4.364 1.532 -8.496 3.097 -12.867 c 2.584 -7.221 5.257 -14.688 1.824 -24.21 c -0.129 -0.359 -0.043 -0.76 0.222 -1.035 c 0.266 -0.274 0.664 -0.373 1.026 -0.256 c 5.503 1.779 12.247 4.712 16.355 11.703 c 8.973 -8.432 8.082 -19.154 5.736 -29.521 c -0.093 -0.412 0.083 -0.838 0.439 -1.065 c 0.356 -0.226 0.818 -0.205 1.15 0.055 c 9.298 7.239 14.109 16.728 14.346 28.253 c 2.806 -4.496 6.895 -7.083 10.718 -9.039 c 0.354 -0.181 0.783 -0.135 1.091 0.118 c 0.308 0.253 0.436 0.665 0.325 1.048 c -2.985 10.402 0.776 17.815 4.096 24.355 c 2.132 4.202 4.148 8.175 4.22 12.468 c 0.02 0.075 0.029 0.153 0.029 0.234 C 77.352 75.487 62.839 90 45 90 z" style="fill: url(#redToYellowGradient);" />
	</g>
</svg>
